<svg xmlns="http://www.w3.org/2000/svg" width="396" height="497" viewBox="-6.905 -5.582 396 497" overflow="visible" enable-background="new -6.905 -5.582 396 497"><ellipse cx="160.677" cy="123.803" rx="80.751" ry="75.888"/><ellipse cx="245.615" cy="109.762" rx="25.293" ry="37.927"/><path d="M137.787 161.41c29.368 5.696 56.57 63.198 63.512 67.647 9.96 7.476 14.41 18.688 13.52 33.817-.72 11.925-4.45 24.205-11.22 37.023-.54.89.18 2.668 1.78 4.98 1.24 1.96 2.49 3.738 3.91 4.984-18.16 17.63-38.63 32.4-61.23 44.5-22.07 11.57-40.94 17.98-56.6 19.05-17.8 1.25-32.4-.71-43.97-6.23-13-6.23-20.65-16.19-22.96-29.9.18 11.93 5.69 21.54 16.37 28.66 12.1 8.19 29.01 11.57 50.72 10.32 16.19-1.42 33.82-6.94 52.86-16.55 13.17-6.76 32.04-18.33 56.42-34.88l-18.69 30.26c-5.52 1.07-10.68 3.2-15.31 6.58-4.81 3.21-7.48 6.41-8.19 9.61-2.85 1.96-8.37 4.28-16.38 7.12l-24.21 8.01c-22.07 8.01-37.2 17.45-45.57 28.48-9.08 12.1-10.32 23.85-3.38 35.6 5.34 9.61 14.95 17.62 28.48 24.56 9.97 4.98 21.36 8.01 33.99 8.72 12.46.89 24.74-.35 36.844-3.73 12.46-3.56 23.316-8.9 32.393-16.37 9.97-7.83 16.91-17.26 21-28.3 18.15 5.16 36.31 7.83 54.29 8.55 16.91.35 32.75-1.07 47.52-4.63 14.24-3.38 26.34-8.54 36.13-15.13 9.97-6.76 16.73-14.6 20.29-23.67 5.692-14.42 2.85-27.41-8.54-38.63-4.45-4.09-9.61-7.65-15.66-10.68-5.17-2.67-9.97-4.27-14.42-5.16-14.77-2.67-33.82 2.32-57.31 15.31-1.25-1.6-3.39-3.2-6.06-4.45-2.495-1.42-4.98-2.31-7.3-2.67 5.34-12.99 12.63-25.8 21.53-38.44 4.986-.71 10.68-3.2 17.27-7.12 6.586-4.09 11.57-8.19 14.77-12.64-4.63-10.32-7.83-22.6-9.61-36.67 4.27-20.46.355-38.26-11.925-53.04-10.504-12.81-25.81-22.07-45.57-27.94-13.52-5.53-18.51-7.29 7.02-42.64m5.23-40.3l-6.35-12.47c1.96-3.38 3.026-7.48 3.383-12.28.18-4.45-.355-8.9-1.6-13.17-1.424-4.27-3.56-7.83-6.407-10.5-3.026-2.84-6.586-4.27-10.856-4.45-9.79-.17-15.485 3.92-17.266 12.46-1.42 6.41-.18 14.6 3.03 24.39-2.67 1.07-4.45 2.14-5.34 2.85-4.45-8.19-10.68-14.95-18.69-20.29-7.66-5.16-16.2-8.72-25.99-10.5-9.62-1.96-19.05-2.14-29.02-.71-10.15 1.61-19.58 4.81-28.3 9.79 5.16-11.74 5.87-22.78 1.96-33.1-3.39-9.43-9.79-16.55-19.05-21.71C99.67.53 89.88-1.08 79.38.7 67.81 2.657 58.02 8.354 49.834 18.143c-8.722 10.145-13.883 21.18-15.485 32.75-1.61 10.856 0 20.468 4.8 29.19 4.62 8.72 11.39 14.594 20.47 17.976 9.61 3.38 20.29 3.02 31.68-1.25-2.32 5.34-4.1 11.03-5.16 17.26-1.43 7.12-1.6 13.7-1.07 19.75M262 85.94c6.584 8.01 8.9 17.8 6.94 29.19-1.958 12.46-8.72 24.21-19.757 35.248-5.874 5.698-12.28 10.148-19.936 13.53-7.297 3.383-14.772 5.34-22.427 5.874-7.654.712-14.95-.178-21.537-2.313-7.12-2.49-12.81-6.23-17.26-11.39 2.313-1.25 6.407-2.67 12.103-4.45-5.873-1.25-11.746.35-17.8 4.63-5.693 4.09-8.363 8.36-8.007 12.99l3.91-5.16c1.6-1.96 3.2-3.38 4.81-4.63 3.02 2.31 6.05 5.87 9.43 10.68l8.36 12.81c3.38 4.8 6.41 8.36 9.08 10.68 3.73 3.02 7.65 4.45 11.57 4.45 8.36 0 15.66-4.28 22.07-13 1.95-3.03 4.27-6.59 6.22-10.68l4.09-8.72c5.52-2.5 9.79-5.34 12.82-8.01-.36 2.31-1.6 5.16-3.38 8.54l-3.56 5.51-1.78 2.13.89-2.85 1.06-2.67c-.53 0-1.96 1.78-3.92 5.52l-7.3 11.75c-7.83 11.39-15.31 17.26-22.78 17.62-7.48.53-14.24-1.43-20.11-5.34-2.5-1.78-7.12-6.05-14.06-12.99-.18.89.89 3.02 3.56 6.58-18.69-4.45-34.18-8.55-46.28-12.28-2.32-3.56-2.85-7.84-2.14-13 .89-5.17 3.2-10.15 6.76-14.95 4.09-5.34 9.25-9.79 15.66-13 7.12-3.92 15.31-6.05 24.21-6.59-4.45-2.31-10.15-5.87-16.56-10.86-7.12-5.34-13.53-11.04-19.23-16.73-14.77-15.29-19.75-26.5-14.77-33.8 5.16-8.01 14.24-12.64 27.23-13.888 12.1-1.24 23.14.36 32.93 4.987l-3.38-3.92c-1.78-1.96-2.85-3.2-3.39-4.27 8.01.18 16.55 2.67 25.63 7.47 10.32 5.34 18.86 12.82 25.09 22.25l-2.49 2.32c-3.02-6.58-7.48-11.92-13.53-16.19-5.69-4.09-9.43-5.16-11.39-3.56-1.42 1.425-.71 4.27 2.14 8.545 1.43 2.49 4.63 6.41 9.44 12.1 1.78 3.21 4.45 5.88 7.653 7.836-1.96 5.34-2.85 9.078-2.67 11.036 2.84-6.588 5.34-11.216 7.47-14.24 3.023-4.09 6.584-6.94 10.68-8.9.89 3.03 2.49 5.52 4.625 7.652 2.14 1.96 4.452 3.2 7.12 3.74 6.053 1.24 11.393-1.25 15.843-7.3zm-38.268.18l-2.32 3.21c-2.49-3.56-4.804-5.514-7.12-6.05-1.244-.18-2.134 0-2.67.536l-7.65-9.61c-2.67-3.92-3.737-6.41-3.027-7.3l3.206.18 6.05 3.38c5.52 4.092 9.97 9.253 13.53 15.66zm-24.03 93.98c3.38-1.42 7.12-1.953 10.854-1.6 4.806.536 8.366 2.495 10.323 5.877-6.77 8.72-13.71 12.28-20.83 10.68-7.66-1.61-14.95-8.9-22.07-21.9 5.16-1.07 9.96.172 14.59 3.56 3.73 2.67 6.94 6.4 9.79 11.21 0-1.78-.89-4.45-2.67-7.83zM341.2 349.73c10.322 2.312 19.04 6.94 26.34 13.526 10.856 9.79 13.882 21.71 9.075 35.42-3.202 9.073-10.145 16.91-20.824 23.49-10.14 6.23-22.78 10.855-37.91 13.882-14.77 3.025-30.25 4.27-46.63 3.738-16.91-.712-32.93-3.205-47.88-7.475 4.45-12.46 4.63-27.76.72-46.1 6.41 3.39 14.06 5.17 22.79 5.52 8.01.36 15.67-.53 22.79-2.85 7.12-2.49 12.28-5.69 15.31-9.96 3.38-4.63 3.74-9.79.89-15.48l12.99-5.69c5.16-2.14 9.61-3.92 13.17-5.16 10.5-3.38 20.11-4.45 29.19-2.85zm-134.38-35.776l1.42-1.246-3.915 6.77-1.246.89 3.74-6.41zm22.25 45.92c2.665-1.603 4.8-2.492 6.225-2.848l-2.67 7.83c-.18 1.955.89 3.56 3.203 4.625 2.136 1.25 4.806 1.96 8.366 2.31 8.008.72 14.77-.53 20.11-3.55.712-.53 1.78-2.49 3.026-5.87 1.245-3.56 2.313-5.87 2.67-6.4 7.296 1.96 11.923 5.52 13.882 10.68 1.957 4.63 1.067 8.9-2.67 12.28-2.492 2.32-6.05 4.27-10.678 6.05-4.807 1.61-9.79 2.67-15.31 3.21-13.17 1.07-24.028-1.06-32.748-6.4l-1.425-2.67c3.56-4.81 4.45-10.14 2.67-15.66 1.07-1.07 2.85-2.13 5.35-3.56zm6.94-36.84l9.075 1.066c4.45.177 7.83.177 9.79-.178-7.12 11.21-12.995 20.822-17.265 29.188-6.054 1.602-11.037 4.27-14.774 8.188-.18-.89-.89-2.134-2.137-3.2-1.25-1.244-2.31-1.78-3.38-1.957 9.79-17.97 15.84-29.01 18.69-33.1zm-32.93 48.41c4.093-1.423 7.3-3.56 9.61-6.053l3.92-7.29c2.67 1.43 4.45 3.56 5.16 6.94.71 3.38 0 6.76-1.96 10.14-2.314 3.92-5.874 7.12-10.86 9.44-5.69 2.85-12.99 4.45-21.535 4.81-7.653.18-13.883-.71-18.867-3.02-4.45-1.96-7.12-4.81-8.01-8.36-.71-3.38.356-6.94 3.737-10.5 3.56-3.92 8.9-7.12 16.197-9.79-3.204 5.34-4.805 8.19-4.805 8.9.53 2.49 2.133 4.45 5.16 5.69 2.67 1.25 6.23 1.78 10.32 1.61 4.1-.18 8.013-1.07 11.93-2.49zm15.484 10.144c3.383 6.41 5.162 14.778 5.162 25.28.178 11.393-1.78 21-6.052 29.368-5.518 11.745-13.705 21.18-24.562 28.478-9.61 6.407-20.645 10.855-33.283 13.172l-33.82 1.244c-10.68-1.244-19.76-3.914-26.88-7.832-18.16-9.79-28.12-20.822-29.73-32.928-.89-8.01 1.24-15.13 6.58-21.715 8.36-9.79 21.18-18.154 38.26-24.918l22.07-8.01c8.9-3.207 16.02-6.05 21.36-8.725-.54 4.807 1.42 8.723 6.05 11.747 4.27 2.85 9.97 4.63 17.26 5.34 7.12.71 14.06.18 20.64-1.6 7.3-1.96 12.99-4.81 16.91-8.9zm2.848-164.28c4.986-5.87 11.216-10.853 19.226-14.95 7.65-4.09 15.66-6.76 23.845-7.83 8.546-1.244 16.378-.71 23.14 1.78 6.587 4.808 11.926 10.147 15.84 15.84 4.63 6.41 7.48 13.528 8.9 21.005 1.96 10.145 1.068 23.493-2.49 40.048.89-.71 2.135-3.2 3.738-7.12.36 7.48 3.03 17.27 7.84 29.37-13.35 13.17-30.43 20.11-51.61 20.65 3.56-7.83 6.05-14.42 7.3-19.76 5.69-1.96 11.57-5.16 17.44-9.43 6.23-4.8 9.79-9.07 10.5-12.81-6.05 6.76-13.52 12.46-22.42 17.27-4.62 2.32-10.32 4.81-17.26 7.3l9.26-1.42c-3.2 8.9-5.87 15.84-8.01 20.65-12.81 4.45-25.63 4.45-38.26.18-5.51-1.96-10.14-4.45-14.06-7.48-3.91-3.02-6.58-6.41-8.18-9.79 6.77-12.46 10.5-23.67 11.75-33.28 1.25-10.32-.53-20.46-5.16-30.43.36-6.94 3.38-13.35 8.72-19.75zM126.9 177.8l.535.89"/><path fill="#FDE1C4" d="M268.934 115.145c1.96-11.39-.355-21.18-6.94-29.19-4.45 6.053-9.79 8.544-15.842 7.3-2.67-.536-4.983-1.782-7.12-3.74-2.135-2.136-3.736-4.627-4.626-7.653-4.095 1.958-7.655 4.806-10.68 8.9-2.136 3.025-4.63 7.653-7.476 14.238-.18-1.958.71-5.696 2.67-11.036-3.204-1.957-5.874-4.627-7.652-7.832-4.807-5.695-8.01-9.61-9.436-12.102-2.848-4.272-3.56-7.12-2.135-8.544 1.957-1.602 5.694-.533 11.39 3.56 6.053 4.272 10.503 9.612 13.528 16.197l2.49-2.314c-6.228-9.44-14.77-16.91-25.095-22.25-9.077-4.81-17.62-7.3-25.63-7.48.535 1.07 1.603 2.31 3.383 4.27l3.38 3.92c-9.788-4.63-20.823-6.23-32.926-4.99-12.994 1.24-22.07 5.87-27.233 13.88-4.983 7.29 0 18.51 14.774 33.81 5.695 5.69 12.103 11.39 19.223 16.73 6.41 4.98 12.11 8.54 16.56 10.85-8.9.53-17.08 2.67-24.2 6.58-6.4 3.2-11.57 7.65-15.66 12.99-3.56 4.8-5.87 9.79-6.76 14.95-.71 5.16-.17 9.43 2.14 12.99 18.19 24.11 37.6 16.21 46.28 12.28-2.67-3.56-3.73-5.7-3.56-6.59 6.94 6.94 11.57 11.21 14.06 12.99 5.88 3.91 12.64 5.87 20.12 5.34 7.48-.36 14.95-6.23 22.79-17.63l7.3-11.75c1.96-3.74 3.38-5.52 3.91-5.52l-1.07 2.68.89.72 3.56-5.52c1.78-3.39 3.02-6.23 3.38-8.55-3.02 2.67-7.29 5.52-12.81 8.01l-4.09 8.72c-1.96 4.1-4.27 7.66-6.23 10.68-6.41 8.72-13.7 12.99-22.07 12.99-3.91 0-7.83-1.425-11.57-4.45-2.67-2.314-5.69-5.874-9.08-10.68l-8.37-12.81c-3.38-4.81-6.41-8.37-9.43-10.68-1.6 1.243-3.2 2.67-4.8 4.63l-3.92 5.16c-.35-4.63 2.32-8.9 8.01-12.995 6.05-4.27 11.93-5.877 17.8-4.63-5.69 1.78-9.79 3.2-12.1 4.45 4.45 5.16 10.14 8.9 17.26 11.39 6.59 2.132 13.89 3.022 21.54 2.31 7.65-.53 15.13-2.49 22.43-5.87 7.66-3.384 14.06-7.834 19.94-13.53 11.04-11.034 17.8-22.78 19.76-35.24zm-71.906-36.13c6.583 5.694 11.212 11.212 13.703 16.374 2.14 4.45 2.32 7.83.54 9.96l-10.14.35c-5.34-2.32-11.39-6.59-18.15-13.17-6.58-6.59-11.03-12.28-13.35-16.91-1.95-4.27-1.78-7.12.36-8.54 1.96-1.43 5.52-1.07 10.15.89 5.34 2.13 11.04 5.69 16.91 11.03z"/><path d="M210.73 95.39c-2.49-5.162-7.12-10.68-13.702-16.376-5.876-5.34-11.57-8.9-16.91-11.035-4.628-1.96-8.188-2.32-10.145-.89-2.136 1.42-2.315 4.27-.357 8.54 2.313 4.63 6.763 10.32 13.35 16.91 6.763 6.58 12.814 10.85 18.154 13.17l10.146-.36c1.78-2.14 1.6-5.52-.535-9.97zm-19.93-3.74c-1.78.357-2.493 1.248-2.316 2.85-7.653-7.12-12.992-13.17-16.018-17.8-2.49-4.27-2.848-6.94-1.246-8.01 1.602-1.245 4.627-.89 9.077 1.247 4.807 2.136 9.79 5.517 15.306 10.146 6.41 5.696 10.86 11.036 13.707 16.02 2.85 5.517 2.313 8.54-1.6 9.077-1.247-5.518-4.808-9.61-10.86-12.28-2.49-1.07-4.27-1.427-6.05-1.25z"/><path fill="#fff" d="M188.482 94.5c-.177-1.602.536-2.492 2.316-2.85 1.78-.177 3.56.18 6.05 1.248 6.052 2.67 9.613 6.763 10.86 12.28 3.913-.534 4.448-3.56 1.6-9.077-2.847-4.98-7.297-10.32-13.706-16.01-5.517-4.63-10.5-8.01-15.306-10.14-4.45-2.13-7.476-2.49-9.077-1.24-1.61 1.07-1.25 3.74 1.24 8.01 3.02 4.63 8.36 10.68 16.01 17.8zm51.262 77.246l-.89-.712-.89 2.847 1.78-2.13zm-18.334-82.41l2.315-3.204c-3.56-6.408-8.01-11.57-13.528-15.662l-6.05-3.38-3.206-.18c-.71.89.36 3.382 3.03 7.298l7.65 9.61c.54-.533 1.43-.71 2.67-.533 2.32.535 4.63 2.493 7.12 6.052z"/><path fill="#FB8970" d="M210.554 178.508c-3.737-.355-7.476.178-10.856 1.603 1.78 3.39 2.67 6.06 2.67 7.84-2.848-4.8-6.052-8.54-9.79-11.21-4.628-3.38-9.434-4.62-14.595-3.56 7.12 13 14.417 20.29 22.07 21.9 7.12 1.6 14.06-1.96 20.825-10.68-1.958-3.38-5.52-5.34-10.324-5.87z"/><path fill="#FDC13C" d="M367.54 363.26c-7.3-6.587-16.02-11.215-26.343-13.527-9.078-1.603-18.688-.535-29.19 2.848-3.56 1.25-8.01 3.03-13.172 5.17l-12.993 5.7c2.85 5.7 2.494 10.86-.89 15.49-3.026 4.27-8.187 7.48-15.306 9.97-7.12 2.31-14.773 3.2-22.783 2.85-8.72-.35-16.374-2.13-22.783-5.51 3.916 18.33 3.738 33.64-.71 46.1 14.948 4.27 30.968 6.76 47.878 7.48 16.374.54 31.86-.71 46.633-3.74 15.13-3.02 27.77-7.65 37.91-13.88 10.68-6.58 17.63-14.41 20.83-23.49 4.81-13.71 1.78-25.63-9.07-35.42z"/><path fill="#fff" d="M208.24 312.71l-1.424 1.246-3.738 6.41 1.246-.892 3.916-6.764z"/><path fill="#FDC13C" d="M235.295 357.03c-1.426.355-3.56 1.245-6.23 2.848-2.49 1.425-4.27 2.49-5.34 3.56 1.78 5.518.89 10.856-2.67 15.664l1.425 2.67c8.72 5.34 19.58 7.475 32.75 6.408 5.518-.537 10.5-1.604 15.308-3.207 4.627-1.78 8.186-3.736 10.678-6.05 3.737-3.38 4.627-7.653 2.67-12.28-1.96-5.162-6.586-8.722-13.883-10.68-.355.53-1.424 2.848-2.67 6.406-1.246 3.38-2.314 5.34-3.025 5.87-5.34 3.02-12.104 4.27-20.11 3.56-3.562-.36-6.23-1.07-8.368-2.32-2.312-1.07-3.383-2.67-3.203-4.63l2.668-7.84zm-22.605 8.364c-2.313 2.492-5.52 4.63-9.612 6.053-3.916 1.424-7.83 2.314-11.926 2.49-4.093.18-7.653-.355-10.323-1.602-3.03-1.244-4.63-3.202-5.17-5.693 0-.713 1.6-3.56 4.8-8.9-7.3 2.67-12.64 5.873-16.2 9.79-3.38 3.56-4.45 7.12-3.74 10.5.89 3.56 3.56 6.41 8.01 8.366 4.98 2.313 11.21 3.203 18.86 3.024 8.54-.354 15.84-1.957 21.53-4.804 4.98-2.315 8.54-5.518 10.86-9.436 1.95-3.38 2.67-6.76 1.95-10.144-.71-3.382-2.49-5.517-5.16-6.942l-3.92 7.298zm11.036 41.473c0-10.502-1.78-18.866-5.162-25.275-3.916 4.094-9.612 6.94-16.91 8.9-6.585 1.78-13.525 2.312-20.645 1.6-7.3-.71-13-2.49-17.27-5.34-4.63-3.023-6.59-6.94-6.05-11.746-5.34 2.672-12.46 5.518-21.36 8.723l-22.07 8.01c-17.09 6.76-29.9 15.12-38.27 24.91-5.34 6.58-7.48 13.7-6.59 21.71 1.6 12.1 11.57 23.14 29.72 32.92 7.12 3.92 16.19 6.59 26.87 7.83l33.82-1.25c12.63-2.32 23.67-6.77 33.28-13.17 10.86-7.3 19.04-16.74 24.56-28.48 4.27-8.37 6.22-17.98 6.05-29.37zm-100.564-7.657l11.926.715c7.12.89 14.417 2.492 22.426 4.27 20.824 5.164 33.105 10.323 36.666 15.663-11.036-5.695-23.316-9.967-36.666-13.17l-34.352-7.478z"/><path d="M135.088 399.925l-11.926-.715 34.352 7.48c13.35 3.2 25.63 7.473 36.666 13.168-3.56-5.34-15.84-10.5-36.666-15.662-8.01-1.78-15.306-3.382-22.426-4.27z"/><path fill="#FC1A22" d="M240.635 202.36c-8.01 4.093-14.24 9.076-19.224 14.95-5.34 6.41-8.36 12.815-8.72 19.757 4.63 9.966 6.41 20.113 5.16 30.434-1.24 9.62-4.98 20.83-11.74 33.29 1.61 3.38 4.28 6.76 8.19 9.79 3.92 3.03 8.55 5.52 14.07 7.48 12.64 4.27 25.45 4.27 38.27-.17 2.14-4.8 4.81-11.74 8.01-20.64l-9.25 1.42c6.94-2.49 12.64-4.98 17.27-7.29 8.9-4.8 16.38-10.5 22.43-17.26-.71 3.74-4.27 8.01-10.5 12.81-5.87 4.28-11.75 7.48-17.44 9.44-1.25 5.34-3.74 11.92-7.3 19.76 21.18-.54 38.27-7.48 51.62-20.65-4.8-12.1-7.47-21.89-7.83-29.36-1.6 3.92-2.85 6.41-3.73 7.12 3.56-16.55 4.45-29.9 2.49-40.04-1.42-7.47-4.27-14.59-8.9-21-3.92-5.7-9.26-11.03-15.84-15.84-6.77-2.49-14.6-3.02-23.14-1.78-8.19 1.07-16.2 3.74-23.85 7.84zm45.92 9.076c0-3.737 1.067-5.873 3.38-6.585 2.317-.53 4.808.36 7.656 3.03 1.61 1.61 3.21 3.38 4.45 5.52 1.43 1.96 2.67 4.45 3.74 7.3 2.14 5.7 3.21 10.15 3.21 13.88-.17 3.39-1.06 5.34-2.84 6.06-1.96.89-4.09 0-6.58-2.31-2.84-2.31-5.51-6.05-8.18-11.03-3.2-6.4-4.8-11.57-4.8-15.84zm-19.758-2.492c4.45 2.67 8.188 6.942 10.858 12.638 3.026 6.05 3.916 11.57 2.67 16.73-.89 4.45-3.382 7.83-6.942 9.61-3.736 1.96-7.475 1.78-11.568-.532-4.45-2.315-8.188-7.12-11.036-13.884-3.03-7.12-3.92-12.993-2.67-17.798.89-4.45 3.2-7.298 6.94-8.544 3.73-1.245 7.47-.71 11.74 1.78z"/><path d="M289.936 204.85c-2.313.713-3.38 2.85-3.38 6.586 0 4.273 1.6 9.435 4.806 15.842 2.67 4.984 5.34 8.72 8.186 11.035 2.493 2.313 4.627 3.203 6.586 2.313 1.78-.712 2.67-2.67 2.848-6.052 0-3.736-1.066-8.186-3.203-13.88-1.07-2.85-2.32-5.34-3.74-7.3-1.25-2.134-2.85-3.913-4.45-5.516-2.85-2.67-5.34-3.56-7.66-3.027zm6.764 4.63c2.67 2.846 5.16 6.762 7.298 12.102 1.957 4.45 3.025 8.365 3.202 11.57.357 3.024-.177 4.98-1.423 5.694-1.247.89-2.847 0-4.984-2.135-2.312-2.31-4.805-6.23-7.475-11.74-2.848-5.34-4.273-9.97-4.627-13.53-.18-3.02.54-4.8 2.14-5.16 1.61-.53 3.56.54 5.88 3.21z"/><path fill="#fff" d="M303.998 221.582c-2.137-5.34-4.628-9.256-7.298-12.103-2.314-2.67-4.272-3.74-5.875-3.21-1.6.35-2.313 2.13-2.134 5.16.36 3.56 1.78 8.19 4.63 13.53 2.67 5.51 5.16 9.43 7.48 11.74 2.14 2.13 3.74 3.02 4.99 2.13 1.25-.71 1.78-2.67 1.43-5.7-.17-3.21-1.24-7.12-3.2-11.57z"/><path d="M277.655 221.582c-2.67-5.696-6.407-9.968-10.858-12.638-4.27-2.492-8.01-3.025-11.746-1.78-3.73 1.246-6.05 4.094-6.94 8.544-1.24 4.805-.35 10.68 2.67 17.798 2.85 6.765 6.59 11.57 11.04 13.884 4.1 2.312 7.83 2.49 11.57.533 3.56-1.78 6.06-5.16 6.94-9.61 1.25-5.16.36-10.68-2.67-16.73zm-11.747-10.146c3.738 2.315 6.764 5.697 8.898 9.968 3.027 5.875 4.095 11.036 3.383 15.84-.54 4.272-2.32 7.12-5.34 8.898-3.03 1.604-6.23 1.604-9.62-.71-3.92-2.314-7.12-6.586-9.61-12.993-2.85-6.95-3.74-12.64-3.03-16.73.71-3.74 2.49-5.88 5.69-6.59 3.02-.71 6.23 0 9.61 2.31z"/><path fill="#fff" d="M274.807 221.403c-2.135-4.27-5.16-7.653-8.898-9.968-3.39-2.313-6.59-3.025-9.62-2.313-3.21.712-4.98 2.848-5.7 6.586-.71 4.094.18 9.79 3.02 16.73 2.49 6.407 5.69 10.68 9.61 12.993 3.38 2.32 6.58 2.32 9.61.71 3.02-1.77 4.8-4.62 5.34-8.89.71-4.8-.36-9.96-3.39-15.84z"/><ellipse cx="46.596" cy="152.721" rx="46.596" ry="50.614"/></svg>